<svg xmlns="http://www.w3.org/2000/svg" viewBox="0 0 102.64 34.32"><defs><style>.cls-1{fill:#f8e180;}.cls-2{fill:#f5c71d;}.cls-3{fill:#fcf2ca;}.cls-4{fill:#f5b617;}.cls-5{fill:#b49219;}.cls-11,.cls-6{fill:none;}.cls-7,.cls-8{fill:#fefafa;}.cls-8{stroke:#f8e180;}.cls-11,.cls-8{stroke-miterlimit:10;stroke-width:0.25px;}.cls-9{fill:#040000;}.cls-10{fill:#a8a8a8;}.cls-11{stroke:#040000;}.cls-12,.cls-14{fill:#fff;}.cls-13{fill:#999899;}.cls-14{opacity:0.8;}</style></defs><g id="图层_2" data-name="图层 2"><g id="图层_1-2" data-name="图层 1"><path class="cls-1" d="M102.64,20.54c0,.68-.48,1.36-1.46,2l0,0c-.15.08-.74.41-1.7.91l-.11.06C96.44,24.83,91.77,26,85.74,27h0c-4.18.68-9,1.26-14.36,1.71C52.47,30.31,0,24.56,0,24.56L10,8.1s6.59-.32,15.43-.53L25,8.34,19,21.79l54.24-1.53-.53-6.51L57.43,7.9C84.57,9.74,102.52,17.35,102.64,20.54Z"/><path class="cls-1" d="M99.44,23.49c1-.5,1.55-.83,1.7-.91A11,11,0,0,1,99.44,23.49Z"/><path class="cls-2" d="M99.33,23.55c-5.4,2.83-21.82,10.66-38.91,10.77C39.43,34.45,5.72,32,5.72,32L0,24.56s52.47,5.75,71.37,4.15c5.35-.45,10.18-1,14.36-1.71h0C91.77,26,96.44,24.83,99.33,23.55Z"/><path class="cls-3" d="M72.72,13.75l.53,6.51-34-12H39.1l.26-.88c5.07,0,10.18.09,14.77.31,1.11,0,2.22.12,3.3.19Z"/><polygon class="cls-4" points="73.25 20.26 19.01 21.79 27.15 7.81 39.1 8.28 39.24 8.29 73.25 20.26"/><path class="cls-3" d="M41,1.63,57.43,7.9c-1.08-.07-2.19-.14-3.3-.19-4.59-.22-9.7-.31-14.77-.31Z"/><path class="cls-1" d="M41,1.63,39.36,7.4c-4.17,0-8.31.06-12.1.13L30.07.63Z"/><path class="cls-1" d="M39.36,7.4l-.26.88-12-.47.11-.28C31.05,7.46,35.19,7.4,39.36,7.4Z"/><path class="cls-5" d="M30.07.63l-2.81,6.9-1.8,0Z"/><path class="cls-5" d="M27.26,7.53l-.11.28L19,21.79,25,8.34l.51-.77Z"/><ellipse class="cls-6" cx="18.07" cy="18.06" rx="6.96" ry="3.73" transform="translate(-6.02 9.56) rotate(-25.55)"/><ellipse class="cls-7" cx="87.24" cy="18.56" rx="2.19" ry="3.22" transform="translate(60.72 103.71) rotate(-84.71)"/><ellipse class="cls-8" cx="87.24" cy="17.82" rx="1.68" ry="2.49" transform="translate(61.46 103.04) rotate(-84.71)"/><ellipse class="cls-9" cx="15.49" cy="15.21" rx="6.54" ry="3.8" transform="translate(-3.88 5.4) rotate(-17.61)"/><path class="cls-10" d="M16.83,12.14a.56.56,0,0,1-.6.51.52.52,0,1,1,0-1A.56.56,0,0,1,16.83,12.14Z"/><path class="cls-10" d="M17.43,11.9a.54.54,0,0,0,.23.56c.37.28.76-.08,1.33.14s.35.41.93.71c.21.1.63.31.84.18s.15-.72-.13-1.1S20,12,19.19,11.73s-1.19-.22-1.42-.12A.58.58,0,0,0,17.43,11.9Z"/><ellipse class="cls-7" cx="14.05" cy="14.66" rx="2.43" ry="1.65" transform="translate(-3.14 3.85) rotate(-14.04)"/><ellipse class="cls-11" cx="13.86" cy="14.13" rx="1.88" ry="1.27" transform="translate(-3.01 3.78) rotate(-14.04)"/><path class="cls-12" d="M36.82,4.26a3,3,0,0,1-.67,1.3,8.07,8.07,0,0,1-1.85.28,7.5,7.5,0,0,1-1.6-.11c-1.55-.26-2.65-1-2.69-1.83,0-.67.59-1.28,1.57-1.7a2.91,2.91,0,0,0-.15.79,3.88,3.88,0,0,0,.11,1h0a3.41,3.41,0,0,0,.37.25A5.87,5.87,0,0,0,36.82,4.26Z"/><path class="cls-12" d="M38.45,3.62c0,.78-.83,1.49-2.11,1.89l-.19,0a3,3,0,0,0,.67-1.3.9.9,0,0,0,.43-.35,3.76,3.76,0,0,0,.1-.6,3.05,3.05,0,0,0-.13-1.09C38,2.56,38.43,3.06,38.45,3.62Z"/><path class="cls-13" d="M37.35,3.31a3.76,3.76,0,0,1-.1.6C37,4.5,33.48,5.54,31.54,4h0a3.88,3.88,0,0,1-.11-1,2.91,2.91,0,0,1,.15-.79,3,3,0,0,1,3-2.2,3,3,0,0,1,2.66,2.22A3.05,3.05,0,0,1,37.35,3.31Z"/><path class="cls-9" d="M36.93,3.59a2.47,2.47,0,0,1-.11.67,5.87,5.87,0,0,1-4.91,0,3.11,3.11,0,0,1-.09-1A2.8,2.8,0,0,1,34.53.46,2.81,2.81,0,0,1,36.93,3.59Z"/><path class="cls-14" d="M34.75.65a.35.35,0,0,1-.36.33.35.35,0,0,1-.33-.37.35.35,0,1,1,.69,0Z"/><path class="cls-14" d="M35.13.64v0a.33.33,0,0,0,0,.26c0,.16.26.15.5.3a1.33,1.33,0,0,1,.58.77.67.67,0,0,0,.07.31c.08.13.25.25.39.2s.18-.28.19-.31,0-.27-.38-.83S36,.89,36,.85a1.52,1.52,0,0,0-.55-.3.84.84,0,0,0-.21,0"/></g></g></svg>