<?xml version="1.0" standalone="no"?><!DOCTYPE svg PUBLIC "-//W3C//DTD SVG 1.1//EN" "http://www.w3.org/Graphics/SVG/1.1/DTD/svg11.dtd"><svg t="1701842566316" class="icon" viewBox="0 0 1024 1024" version="1.1" xmlns="http://www.w3.org/2000/svg" p-id="3956" xmlns:xlink="http://www.w3.org/1999/xlink" width="200" height="200"><path d="M239.057455 152.436364h508.090181V31.278545A12.008727 12.008727 0 0 0 735.418182 19.549091H250.786909a12.008727 12.008727 0 0 0-11.729454 11.729454v121.157819z" fill="#B0F7FF" p-id="3957"></path><path d="M766.696727 171.985455H219.508364V31.278545c0-17.221818 14.056727-31.278545 31.278545-31.278545H735.418182c17.221818 0 31.278545 14.056727 31.278545 31.278545v140.70691z m-508.090182-39.098182h468.992V39.098182H258.606545v93.789091z" fill="#2D2C2C" p-id="3958"></path><path d="M149.131636 367.383273h680.075637c30.487273 0 54.737455 24.203636 54.737454 54.737454v547.141818c0 30.487273-24.203636 54.737455-54.737454 54.737455H149.178182c-30.533818 0-54.737455-24.203636-54.737455-54.737455V422.167273c0-30.487273 24.203636-54.737455 54.690909-54.737455z" fill="#B0F7FF" p-id="3959"></path><path d="M809.658182 1024H168.727273a74.752 74.752 0 0 1-74.286546-74.24V441.669818c0-40.680727 33.605818-74.286545 74.24-74.286545h640.977455c40.680727 0 74.286545 33.605818 74.286545 74.286545v508.090182c0 40.634182-33.605818 74.24-74.286545 74.24zM168.727273 406.481455a35.048727 35.048727 0 0 0-35.188364 35.188363v508.090182c0 19.549091 15.592727 35.141818 35.141818 35.141818h640.977455c19.549091 0 35.188364-15.639273 35.188363-35.141818V441.669818a35.048727 35.048727 0 0 0-35.188363-35.188363H168.727273z" fill="#2D2C2C" p-id="3960"></path><path d="M232.029091 140.706909h522.146909c6.237091 0 11.729455 3.118545 14.056727 9.355636l113.338182 242.362182c3.909818 7.773091 0 17.175273-7.819636 21.085091-1.536 0-3.118545 0.791273-5.445818 0.791273H117.899636a15.685818 15.685818 0 0 1-15.639272-15.639273c0-2.327273 0.791273-4.654545 1.536-6.237091l113.384727-242.362182a17.501091 17.501091 0 0 1 14.848-9.355636z" fill="#1FCEEA" p-id="3961"></path><path d="M892.509091 414.254545H93.649455l128.186181-273.547636h542.487273L892.509091 414.254545zM155.461818 375.249455h676.165818l-92.253091-195.397819H246.877091L155.415273 375.156364z" fill="#2D2C2C" p-id="3962"></path><path d="M321.163636 175.895273a19.362909 19.362909 0 0 1-19.549091-19.549091V31.278545c0-10.938182 8.564364-19.549091 19.549091-19.54909 10.891636 0 19.502545 8.610909 19.502546 19.54909v125.067637c0 10.938182-8.610909 19.549091-19.549091 19.549091z m85.922909 0a19.362909 19.362909 0 0 1-19.54909-19.549091V31.278545c0-10.938182 8.610909-19.549091 19.54909-19.54909 10.984727 0 19.549091 8.610909 19.549091 19.54909v125.067637c0 10.938182-8.564364 19.549091-19.549091 19.549091z m86.016 0a19.362909 19.362909 0 0 1-19.54909-19.549091V31.278545c0-10.938182 8.610909-19.549091 19.54909-19.54909s19.549091 8.610909 19.549091 19.54909v125.067637c0 10.938182-8.610909 19.549091-19.549091 19.549091z m85.969455 0a19.362909 19.362909 0 0 1-19.549091-19.549091V31.278545c0-10.938182 8.610909-19.549091 19.549091-19.54909s19.549091 8.610909 19.549091 19.54909v125.067637c0 10.938182-8.610909 19.549091-19.549091 19.549091z m85.969455 0a19.362909 19.362909 0 0 1-19.549091-19.549091V31.278545c0-10.938182 8.610909-19.549091 19.549091-19.54909 10.984727 0 19.549091 8.610909 19.54909 19.54909v125.067637c0 10.938182-8.564364 19.549091-19.54909 19.549091z" fill="#2D2C2C" p-id="3963"></path><path d="M422.725818 203.217455a23.458909 23.458909 0 1 0 46.917818 0 23.458909 23.458909 0 0 0-46.917818 0z" fill="#3C3C3C" p-id="3964"></path><path d="M258.606545 578.420364a39.098182 39.098182 0 1 0 78.149819 0 39.098182 39.098182 0 0 0-78.196364 0z" fill="#2D2D2E" p-id="3965"></path><path d="M345.367273 711.307636H257.815273a22.853818 22.853818 0 0 1-22.667637-23.412363c0-13.312 10.146909-23.458909 22.667637-23.458909h87.505454c12.567273 0 22.714182 10.146909 22.714182 23.458909a22.853818 22.853818 0 0 1-22.667636 23.412363z" fill="#F6627F" p-id="3966"></path><path d="M665.041455 578.420364a39.098182 39.098182 0 1 0 78.196363 0 39.098182 39.098182 0 0 0-78.196363 0z" fill="#2D2D2E" p-id="3967"></path><path d="M751.848727 711.307636h-87.552a22.853818 22.853818 0 0 1-22.667636-23.412363c0-13.312 10.146909-23.458909 22.667636-23.458909h87.505455c12.567273 0 22.714182 10.146909 22.714182 23.458909a22.853818 22.853818 0 0 1-22.667637 23.412363z" fill="#F66A88" p-id="3968"></path><path d="M446.184727 680.029091a62.882909 62.882909 0 0 1-62.510545-63.301818 22.667636 22.667636 0 0 1 45.335273 0 17.687273 17.687273 0 0 0 17.966545 18.013091 17.687273 17.687273 0 0 0 17.966545-18.013091 22.667636 22.667636 0 0 1 45.335273 0c-1.536 35.188364-29.696 63.301818-64.093091 63.301818z" fill="#2D2D2E" p-id="3969"></path><path d="M539.973818 680.029091a62.882909 62.882909 0 0 1-62.510545-63.301818 22.667636 22.667636 0 0 1 45.335272 0 17.687273 17.687273 0 0 0 17.966546 18.013091 17.687273 17.687273 0 0 0 17.966545-18.013091 22.667636 22.667636 0 0 1 45.335273 0c-1.536 35.188364-29.696 63.301818-64.093091 63.301818z" fill="#2D2D2E" p-id="3970"></path><path d="M266.426182 316.602182H262.516364a19.921455 19.921455 0 0 1-15.639273-22.667637c9.355636-48.500364 22.667636-78.196364 41.425454-92.25309 22.667636-17.221818 56.273455-17.221818 88.296728-17.221819h7.074909c10.938182 0 19.549091 8.610909 19.549091 19.549091s-8.610909 19.549091-19.549091 19.549091H376.552727c-25.786182 0-52.363636 0-64.837818 9.402182-4.701091 3.909818-16.430545 17.175273-26.577454 68.747636a18.618182 18.618182 0 0 1-18.757819 14.894546z" fill="#3A3A3A" p-id="3971"></path></svg>